<svg width="256" height="256" viewBox="0 0 256 256" fill="none" xmlns="http://www.w3.org/2000/svg">
<mask id="mask0_3_87" style="mask-type:luminance" maskUnits="userSpaceOnUse" x="0" y="0" width="256" height="256">
<path d="M128 256C198.692 256 256 198.692 256 128C256 57.3076 198.692 0 128 0C57.3076 0 0 57.3076 0 128C0 198.692 57.3076 256 128 256Z" fill="white"/>
</mask>
<g mask="url(#mask0_3_87)">
<path d="M82.8238 -15.0588L178.944 286.118H261.767V-15.0588H82.8238Z" fill="#0D0A26"/>
<path fill-rule="evenodd" clip-rule="evenodd" d="M131.027 104.248C133.695 108.535 136.903 113.293 140.692 118.322C137.145 122.523 133.225 126.777 128.908 130.995L133.151 144.609C138.986 139.246 144.198 133.799 148.836 128.418C159.298 140.553 172.979 153.436 190.46 164.683C191.476 165.336 192.599 165.647 193.708 165.647C195.805 165.647 197.853 164.535 199.028 162.518C200.825 159.434 199.902 155.404 196.967 153.516C179.989 142.592 166.856 130.024 156.963 118.331C170.798 99.946 178.005 83.6002 180.937 75.9489H199.322C202.763 75.9489 205.553 73.0177 205.553 69.4017C205.553 65.7856 202.763 62.8544 199.322 62.8544H154.651V51.7237C154.651 48.1077 151.861 45.1765 148.42 45.1765C144.979 45.1765 142.188 48.1077 142.188 51.7237V62.8538H107.67L111.753 75.9483H116.686C118.845 81.5531 123.316 91.8605 131.027 104.248ZM167.344 75.9483H130.272C132.627 81.3407 136.329 88.8936 141.713 97.4917C143.738 100.726 146.1 104.252 148.81 107.966C158.215 95.0392 164.083 83.4097 167.344 75.9483Z" fill="white"/>
<path d="M178.944 286.118L82.8238 -15.0588H0V286.118H178.944Z" fill="#B928FF"/>
<path d="M76.1672 90.8944C75.4995 91.1911 74.5559 92.0192 74.1117 92.7885C73.6675 93.5579 65.2743 116.926 55.4904 144.788C43.7061 178.152 37.6471 196.138 37.6471 197.615C37.6471 200.631 40.0916 203.294 42.8729 203.294C47.431 203.294 48.0436 202.29 53.2665 187.143L56.2684 178.449L78.9456 178.566L101.681 178.742L105.516 189.686C109.685 201.635 110.742 203.294 114.078 203.294C117.747 203.294 120.471 200.751 120.471 197.318C120.471 196.194 86.3982 98.5233 84.2846 93.6753C83.0595 90.8357 79.3375 89.5349 76.1672 90.8944ZM88.7295 141.889L97.0124 165.434H78.9485C61.9384 165.434 60.8846 165.375 61.2736 164.368C61.4972 163.837 65.3323 152.834 69.8904 139.995C74.4485 127.157 78.3388 116.154 78.5624 115.505C79.0588 114.204 77.9469 111.303 88.7295 141.889Z" fill="white"/>
</g>
</svg>
